<svg width="18" height="18" viewBox="0 0 18 18" fill="none" xmlns="http://www.w3.org/2000/svg">
<path fill-rule="evenodd" clip-rule="evenodd" d="M14.2559 4.80535C14.5488 4.51246 14.5488 4.03759 14.2559 3.74469C13.963 3.4518 13.4882 3.4518 13.1953 3.74469L9.00025 7.93971L4.80523 3.74469C4.51234 3.4518 4.03747 3.4518 3.74457 3.74469C3.45168 4.03759 3.45168 4.51246 3.74457 4.80535L7.93959 9.00037L3.74457 13.1954C3.45168 13.4883 3.45168 13.9632 3.74457 14.256C4.03747 14.5489 4.51234 14.5489 4.80523 14.256L9.00025 10.061L13.1953 14.256C13.4882 14.5489 13.963 14.5489 14.2559 14.256C14.5488 13.9632 14.5488 13.4883 14.2559 13.1954L10.0609 9.00037L14.2559 4.80535Z" fill="#1A1926"/>
</svg>
