<svg width="22" height="22" viewBox="0 0 22 22" fill="none" xmlns="http://www.w3.org/2000/svg">
<path fill-rule="evenodd" clip-rule="evenodd" d="M18.3941 12.3904C18.7088 12.5576 18.9517 12.8216 19.1225 13.0856C19.4553 13.6312 19.4283 14.3 19.1045 14.8896L18.475 15.9455C18.1423 16.5087 17.5217 16.8608 16.8832 16.8608C16.5685 16.8608 16.2177 16.7728 15.9299 16.5968C15.6961 16.4472 15.4263 16.3944 15.1385 16.3944C14.2482 16.3944 13.5018 17.1248 13.4748 17.996C13.4748 19.0079 12.6474 19.7999 11.6132 19.7999H10.3901C9.34689 19.7999 8.51952 19.0079 8.51952 17.996C8.50153 17.1248 7.75509 16.3944 6.86476 16.3944C6.56799 16.3944 6.29819 16.4472 6.07336 16.5968C5.78558 16.7728 5.42585 16.8608 5.12008 16.8608C4.47257 16.8608 3.85203 16.5087 3.51928 15.9455L2.89875 14.8896C2.566 14.3176 2.54802 13.6312 2.88077 13.0856C3.02466 12.8216 3.29445 12.5576 3.60022 12.3904C3.85203 12.2672 4.01391 12.0648 4.1668 11.8272C4.61646 11.0704 4.34666 10.076 3.58224 9.62715C2.69191 9.12555 2.40412 8.00795 2.91674 7.13675L3.51928 6.09835C4.04089 5.22715 5.15605 4.91915 6.05537 5.42955C6.83778 5.85195 7.85402 5.57035 8.31267 4.82235C8.45657 4.57595 8.5375 4.31195 8.51952 4.04795C8.50153 3.70475 8.60046 3.37915 8.77133 3.11515C9.10408 2.56955 9.70662 2.21755 10.3631 2.19995H11.6312C12.2967 2.19995 12.8992 2.56955 13.232 3.11515C13.3938 3.37915 13.5018 3.70475 13.4748 4.04795C13.4568 4.31195 13.5377 4.57595 13.6816 4.82235C14.1403 5.57035 15.1565 5.85195 15.9479 5.42955C16.8383 4.91915 17.9624 5.22715 18.475 6.09835L19.0776 7.13675C19.5992 8.00795 19.3114 9.12555 18.4121 9.62715C17.6476 10.076 17.3778 11.0704 17.8365 11.8272C17.9804 12.0648 18.1423 12.2672 18.3941 12.3904Z" fill="white"/>
<path d="M11.0106 13.4904C9.59868 13.4904 8.45654 12.3904 8.45654 11.0088C8.45654 9.62723 9.59868 8.51843 11.0106 8.51843C12.4226 8.51843 13.5377 9.62723 13.5377 11.0088C13.5377 12.3904 12.4226 13.4904 11.0106 13.4904Z" fill="#1A1926"/>
<path opacity="0.25" d="M19.1225 13.0856C18.9517 12.8216 18.7088 12.5576 18.3941 12.3904C18.1423 12.2671 17.9804 12.0647 17.8365 11.8272C17.3778 11.0703 17.6476 10.076 18.4121 9.62715C19.3114 9.12555 19.5992 8.00795 19.0776 7.13675L18.475 6.09835C17.9624 5.22715 16.8383 4.91915 15.9479 5.42955C15.1565 5.85195 14.1403 5.57035 13.6816 4.82235C13.5377 4.57595 13.4568 4.31195 13.4748 4.04795C13.5018 3.70475 13.3938 3.37915 13.232 3.11515C12.8992 2.56955 12.2967 2.19995 11.6312 2.19995H10.3631C9.70662 2.21755 9.10408 2.56955 8.77133 3.11515C8.60046 3.37915 8.50153 3.70475 8.51952 4.04795C8.5375 4.31195 8.45657 4.57595 8.31267 4.82235C7.85402 5.57035 6.83778 5.85195 6.05537 5.42955C5.15605 4.91915 4.04089 5.22715 3.51928 6.09835L2.91674 7.13675C2.40412 8.00795 2.69191 9.12555 3.58224 9.62715C4.34666 10.076 4.61646 11.0703 4.1668 11.8272C4.01391 12.0647 3.85203 12.2671 3.60022 12.3904C3.29445 12.5576 3.02466 12.8216 2.88077 13.0856C2.54802 13.6312 2.566 14.3176 2.89875 14.8896L3.51928 15.9455C3.85203 16.5087 4.47257 16.8608 5.12008 16.8608C5.42585 16.8608 5.78558 16.7728 6.07336 16.5968C6.29819 16.4472 6.56799 16.3943 6.86476 16.3943C7.75509 16.3943 8.50153 17.1248 8.51952 17.996C8.51952 19.0079 9.34689 19.7999 10.3901 19.7999H11.6132C12.6474 19.7999 13.4748 19.0079 13.4748 17.996C13.5018 17.1248 14.2482 16.3943 15.1385 16.3943C15.4263 16.3943 15.6961 16.4472 15.9299 16.5968C16.2177 16.7728 16.5685 16.8608 16.8832 16.8608C17.5217 16.8608 18.1423 16.5087 18.475 15.9455L19.1045 14.8896C19.4283 14.3 19.4553 13.6312 19.1225 13.0856Z" fill="#1A1926"/>
</svg>
