<svg width="20" height="20" viewBox="0 0 20 20" fill="none" xmlns="http://www.w3.org/2000/svg">
<path d="M10 2V18" stroke="white" stroke-width="2" stroke-linecap="round" stroke-linejoin="round"/>
<path opacity="0.4" d="M10 2V18" stroke="#1A1926" stroke-width="2" stroke-linecap="round" stroke-linejoin="round"/>
<path d="M14 4.82349H7.99995C7.25735 4.82349 6.54515 5.09617 6.02005 5.58156C5.49495 6.06695 5.19995 6.72528 5.19995 7.41172C5.19995 8.09816 5.49495 8.75649 6.02005 9.24188C6.54515 9.72727 7.25735 9.99996 7.99995 9.99996H12C12.7426 9.99996 13.4547 10.2726 13.9799 10.758C14.505 11.2434 14.8 11.9017 14.8 12.5882C14.8 13.2746 14.505 13.933 13.9799 14.4184C13.4547 14.9037 12.7426 15.1764 12 15.1764H5.19995" stroke="#1A1926" stroke-width="2" stroke-linecap="round" stroke-linejoin="round"/>
</svg>
