<svg width="20" height="20" viewBox="0 0 20 20" fill="none" xmlns="http://www.w3.org/2000/svg">
<path fill-rule="evenodd" clip-rule="evenodd" d="M14.5168 8.19042L15.4415 7.0361C15.8648 6.49143 16.0153 5.86172 15.8742 5.22054C15.7519 4.63764 15.3945 4.08342 14.8583 3.66297L13.5507 2.62141C12.4125 1.71363 11.0015 1.80918 10.1926 2.85074L9.3008 3.95824C9.20673 4.07673 9.22272 4.24682 9.33937 4.34237C9.62989 4.57771 10.1956 5.03635 10.852 5.56849C12.0001 6.49917 13.4254 7.65465 14.1405 8.23342C14.2562 8.32706 14.4237 8.30795 14.5168 8.19042ZM12.0426 16.181H17.1043C17.5982 16.181 17.9998 16.589 17.9998 17.0907C17.9998 17.5933 17.5982 18.0004 17.1043 18.0004H12.0426C11.5487 18.0004 11.1471 17.5933 11.1471 17.0907C11.1471 16.589 11.5487 16.181 12.0426 16.181Z" fill="white"/>
<path opacity="0.4" d="M17.1045 16.181H12.0427C11.5489 16.181 11.1472 16.5891 11.1472 17.0907C11.1472 17.5933 11.5489 18.0004 12.0427 18.0004H17.1045C17.5983 18.0004 18 17.5933 18 17.0907C18 16.5891 17.5983 16.181 17.1045 16.181Z" fill="#1A1926"/>
<path d="M8.49711 5.4703L13.2936 9.34605C13.4093 9.43874 13.429 9.60883 13.3387 9.72732L7.65239 17.1367C7.29494 17.5945 6.76816 17.8534 6.20376 17.863L3.09955 17.9012C2.934 17.9031 2.78913 17.7884 2.75151 17.6241L2.04601 14.5567C1.92372 13.9929 2.04601 13.4101 2.40346 12.9609L8.11802 5.51616C8.21021 5.39672 8.38047 5.3757 8.49711 5.4703Z" fill="#1A1926"/>
<path opacity="0.4" d="M15.4415 7.0361L14.5168 8.19042C14.4237 8.30795 14.2562 8.32706 14.1405 8.23342C13.0164 7.32373 10.138 4.98929 9.33937 4.34237C9.22272 4.24682 9.20673 4.07673 9.3008 3.95824L10.1926 2.85074C11.0015 1.80918 12.4125 1.71363 13.5507 2.62141L14.8583 3.66297C15.3945 4.08342 15.7519 4.63764 15.8742 5.22054C16.0153 5.86172 15.8648 6.49143 15.4415 7.0361Z" fill="#1A1926"/>
</svg>
