<svg width="20" height="20" viewBox="0 0 20 20" fill="none" xmlns="http://www.w3.org/2000/svg">
<path d="M1.81689 5.58815C1.81689 3.62735 3.44109 2.03055 5.43652 2.03055H9.40541C11.3968 2.03055 13.0169 3.62255 13.0169 5.58015V14.4729C13.0169 16.4345 11.3927 18.0305 9.39645 18.0305H5.42919C3.43702 18.0305 1.81689 16.4385 1.81689 14.4809V13.7289V5.58815Z" fill="white"/>
<path opacity="0.25" d="M1.81689 5.58815C1.81689 3.62735 3.44109 2.03055 5.43652 2.03055H9.40541C11.3968 2.03055 13.0169 3.62255 13.0169 5.58015V14.4729C13.0169 16.4345 11.3927 18.0305 9.39645 18.0305H5.42919C3.43702 18.0305 1.81689 16.4385 1.81689 14.4809V13.7289V5.58815Z" fill="#1A1926"/>
<path d="M17.6402 9.59439L15.3635 7.26719C15.1282 7.02719 14.7496 7.02719 14.5151 7.26879C14.2813 7.51039 14.2821 7.89999 14.5166 8.13999L15.764 9.41439H14.568H7.85579C7.52466 9.41439 7.25586 9.69039 7.25586 10.0304C7.25586 10.3712 7.52466 10.6464 7.85579 10.6464H15.764L14.5166 11.9208C14.2821 12.1608 14.2813 12.5504 14.5151 12.792C14.6327 12.9128 14.7862 12.9736 14.9405 12.9736C15.0932 12.9736 15.2467 12.9128 15.3635 12.7936L17.6402 10.4672C17.7531 10.3512 17.817 10.1944 17.817 10.0304C17.817 9.86719 17.7531 9.71039 17.6402 9.59439Z" fill="#1A1926"/>
</svg>
