<svg width="24" height="24" viewBox="0 0 24 24" fill="none" xmlns="http://www.w3.org/2000/svg">
<path fill-rule="evenodd" clip-rule="evenodd" d="M7.59998 12C7.59998 11.8896 7.68952 11.8 7.79998 11.8C7.91043 11.8 7.99998 11.8896 7.99998 12C7.99998 12.1105 7.91043 12.2 7.79998 12.2C7.68952 12.2 7.59998 12.1105 7.59998 12ZM7.79998 9.80005C6.58495 9.80005 5.59998 10.785 5.59998 12C5.59998 13.2151 6.58495 14.2 7.79998 14.2C9.015 14.2 9.99998 13.2151 9.99998 12C9.99998 10.785 9.015 9.80005 7.79998 9.80005ZM16 12C16 11.8896 16.0895 11.8 16.2 11.8C16.3104 11.8 16.4 11.8896 16.4 12C16.4 12.1105 16.3104 12.2 16.2 12.2C16.0895 12.2 16 12.1105 16 12ZM16.2 9.80005C14.985 9.80005 14 10.785 14 12C14 13.2151 14.985 14.2 16.2 14.2C17.415 14.2 18.4 13.2151 18.4 12C18.4 10.785 17.415 9.80005 16.2 9.80005Z" fill="#637085"/>
</svg>
