<svg width="22" height="22" viewBox="0 0 22 22" fill="none" xmlns="http://www.w3.org/2000/svg">
<path fill-rule="evenodd" clip-rule="evenodd" d="M14.7076 4.47236C14.542 3.19396 13.4582 2.19995 12.1367 2.19995H9.86341C8.541 2.19995 7.45806 3.19396 7.29254 4.47236H5.56072C3.7074 4.47236 2.2001 5.97614 2.2001 7.82506V10.1926H2.2C2.20003 10.1942 2.20006 10.1958 2.2001 10.1973V10.8766C2.2001 10.932 2.207 10.9864 2.22024 11.0389C2.27364 13.0955 2.36952 15.8213 2.38489 16.1602C2.4474 16.9905 2.76524 17.8295 3.26004 18.4212C3.94854 19.2514 4.7964 19.6221 5.97883 19.6221C7.61292 19.6309 9.41429 19.6309 11.1637 19.6309C12.9202 19.6309 14.6247 19.6309 16.0642 19.6221C17.2299 19.6221 18.1042 19.2418 18.7839 18.4212C19.2787 17.8295 19.5965 16.9817 19.6414 16.1602C19.6509 15.9853 19.6805 14.8074 19.7141 13.4717L19.7141 13.4711L19.7141 13.4707C19.7346 12.6597 19.7564 11.7906 19.7761 11.0525C19.7918 10.9959 19.8 10.9368 19.8 10.8766V7.82506C19.8 5.97614 18.2962 4.47236 16.4482 4.47236H14.7076ZM9.86341 3.5206H12.1367C12.7284 3.5206 13.2232 3.92561 13.3711 4.47236H8.62816C8.77607 3.92561 9.27088 3.5206 9.86341 3.5206Z" fill="white"/>
<path opacity="0.4" d="M2.2 10.1926C2.24402 12.2511 2.36728 15.7719 2.38489 16.1602C2.4474 16.9905 2.76524 17.8295 3.26004 18.4212C3.94854 19.2514 4.7964 19.6221 5.97883 19.6221C7.61292 19.6309 9.41429 19.6309 11.1637 19.6309C12.9202 19.6309 14.6247 19.6309 16.0642 19.6221C17.2299 19.6221 18.1042 19.2417 18.7839 18.4212C19.2787 17.8295 19.5965 16.9817 19.6414 16.1602C19.659 15.8336 19.7471 12.0116 19.7999 10.1926H2.2Z" fill="#2D99FF"/>
<path d="M10.3398 13.9836V15.1229C10.3398 15.4874 10.6356 15.7832 11.0001 15.7832C11.3646 15.7832 11.6605 15.4874 11.6605 15.1229V13.9836C11.6605 13.6191 11.3646 13.3232 11.0001 13.3232C10.6356 13.3232 10.3398 13.6191 10.3398 13.9836Z" fill="#2D99FF"/>
<path d="M12.1367 2.19995C13.4582 2.19995 14.5421 3.19396 14.7076 4.47236H16.4482C18.2962 4.47236 19.8 5.97614 19.8 7.82506V10.8766C19.8 11.0985 19.6882 11.3054 19.5042 11.4278C17.6887 12.6296 15.5334 13.4299 13.2725 13.7425C13.2417 13.7469 13.2117 13.7486 13.1818 13.7486C12.8833 13.7486 12.6165 13.547 12.5417 13.2512C12.3639 12.5504 11.7273 12.06 10.9957 12.06C10.2543 12.06 9.62482 12.5398 9.42936 13.2547C9.34132 13.5743 9.03405 13.7786 8.70124 13.7345C6.45525 13.4211 4.30875 12.6243 2.49681 11.4278C2.31104 11.3063 2.2001 11.0985 2.2001 10.8766V7.82506C2.2001 5.97614 3.70741 4.47236 5.56073 4.47236H7.29254C7.45807 3.19396 8.541 2.19995 9.86342 2.19995H12.1367ZM12.1367 3.5206H9.86342C9.27088 3.5206 8.77608 3.92561 8.62817 4.47236H13.3711C13.2232 3.92561 12.7284 3.5206 12.1367 3.5206Z" fill="#2D99FF"/>
</svg>
