<svg width="22" height="22" viewBox="0 0 22 22" fill="none" xmlns="http://www.w3.org/2000/svg">
<path fill-rule="evenodd" clip-rule="evenodd" d="M10.3537 3.84995C6.76139 3.84995 3.85001 6.76133 3.85001 10.3536C3.85001 13.9459 6.76139 16.8573 10.3537 16.8573C12.0777 16.8573 13.6436 16.1875 14.8082 15.0923C16.0707 13.9051 16.8574 12.222 16.8574 10.3536C16.8574 6.76139 13.9452 3.84995 10.3537 3.84995ZM2.20001 10.3536C2.20001 5.85006 5.85012 2.19995 10.3537 2.19995C14.8564 2.19995 18.5074 5.85 18.5074 10.3536C18.5074 12.3984 17.7539 14.2681 16.5111 15.6987L19.0614 18.4097C19.3736 18.7415 19.3576 19.2637 19.0258 19.5759C18.6939 19.8881 18.1718 19.8721 17.8596 19.5402L15.3092 16.8291C13.936 17.8813 12.2172 18.5073 10.3537 18.5073C5.85012 18.5073 2.20001 14.8572 2.20001 10.3536Z" fill="#1A1926"/>
<path d="M6.9705 12.1C6.73294 11.5999 6.60001 11.0405 6.60001 10.45C6.60001 9.04955 7.34778 7.82372 8.46583 7.15002" stroke="white" stroke-width="1.5" stroke-linecap="round"/>
<path opacity="0.4" d="M6.9705 12.1C6.73294 11.5999 6.60001 11.0405 6.60001 10.45C6.60001 9.04955 7.34778 7.82372 8.46583 7.15002" stroke="#1A1926" stroke-width="1.5" stroke-linecap="round"/>
</svg>
